<svg xmlns="http://www.w3.org/2000/svg" width="1420" height="1420" viewBox="0 0 1420 1420" font-family="Helvetica, Arial, sans-serif"><rect width="1420" height="1420" fill="#ffffff"/><text x="46" y="34" font-size="22" font-weight="bold" fill="#111">第 6 位往生／陽上 — 建議補的格位（紅色虛線）</text><rect x="46" y="56" width="16" height="12" fill="#bcd4f0" stroke="#2563aa"/><text x="68" y="67" font-size="12" fill="#333">主名（第1位）</text><rect x="166" y="56" width="16" height="12" fill="#dcebfb" stroke="#2563aa"/><text x="188" y="67" font-size="12" fill="#333">現有第2–5位</text><rect x="296" y="56" width="16" height="12" fill="#fde2e2" stroke="#d62828" stroke-dasharray="4 2"/><text x="318" y="67" font-size="12" fill="#333">建議補的第6位</text><text x="476" y="67" font-size="11" fill="#777">框=直書姓名格；高度為示意（代表一個約3字的名字）</text><rect x="46" y="132" width="299" height="660.4" fill="#fcfcf8" stroke="#888" stroke-width="1.5"/><text x="46" y="118" font-size="19" font-weight="bold" fill="#222">薦牌 tmpTablet（基本變體）　<tspan font-size="12" font-weight="normal" fill="#666">紙張 11.5cm × 25.4cm（直書，由上往下）</tspan></text><line x1="46" y1="132" x2="46" y2="792.4" stroke="#eee" stroke-width="1"/><line x1="176" y1="132" x2="176" y2="792.4" stroke="#eee" stroke-width="1"/><line x1="306" y1="132" x2="306" y2="792.4" stroke="#eee" stroke-width="1"/><line x1="46" y1="132" x2="345" y2="132" stroke="#eee" stroke-width="1"/><text x="40" y="136" font-size="9" fill="#bbb" text-anchor="end">0</text><line x1="46" y1="262" x2="345" y2="262" stroke="#eee" stroke-width="1"/><text x="40" y="266" font-size="9" fill="#bbb" text-anchor="end">5</text><line x1="46" y1="392" x2="345" y2="392" stroke="#eee" stroke-width="1"/><text x="40" y="396" font-size="9" fill="#bbb" text-anchor="end">10</text><line x1="46" y1="522" x2="345" y2="522" stroke="#eee" stroke-width="1"/><text x="40" y="526" font-size="9" fill="#bbb" text-anchor="end">15</text><line x1="46" y1="652" x2="345" y2="652" stroke="#eee" stroke-width="1"/><text x="40" y="656" font-size="9" fill="#bbb" text-anchor="end">20</text><line x1="46" y1="782" x2="345" y2="782" stroke="#eee" stroke-width="1"/><text x="40" y="786" font-size="9" fill="#bbb" text-anchor="end">25</text><text x="150" y="323.145" font-size="13" font-weight="bold" fill="#444">往生</text><rect x="173.4" y="329.145" width="15.6" height="48.36" fill="#bcd4f0" stroke="#2563aa" stroke-width="2" rx="2"/><text x="181.20000000000002" y="358.325" font-size="13" fill="#1a3a5c" text-anchor="middle">1主</text><rect x="196.79999999999998" y="329.145" width="15.6" height="48.36" fill="#dcebfb" stroke="#2563aa" stroke-width="1.2" rx="2"/><text x="204.6" y="358.325" font-size="13" fill="#1a3a5c" text-anchor="middle">2</text><rect x="150" y="329.145" width="15.6" height="48.36" fill="#dcebfb" stroke="#2563aa" stroke-width="1.2" rx="2"/><text x="157.8" y="358.325" font-size="13" fill="#1a3a5c" text-anchor="middle">3</text><rect x="196.79999999999998" y="377.6064" width="15.6" height="48.36" fill="#dcebfb" stroke="#2563aa" stroke-width="1.2" rx="2"/><text x="204.6" y="406.7864" font-size="13" fill="#1a3a5c" text-anchor="middle">4</text><rect x="150" y="377.6064" width="15.6" height="48.36" fill="#dcebfb" stroke="#2563aa" stroke-width="1.2" rx="2"/><text x="157.8" y="406.7864" font-size="13" fill="#1a3a5c" text-anchor="middle">5</text><rect x="173.4" y="377.6064" width="15.6" height="48.36" fill="#fde2e2" stroke="#d62828" stroke-width="2" stroke-dasharray="5 3" rx="2"/><text x="181.20000000000002" y="406.7864" font-size="14" font-weight="bold" fill="#d62828" text-anchor="middle">6</text><text x="48.6" y="490" font-size="13" font-weight="bold" fill="#444">陽上</text><rect x="86.60342" y="496.10114" width="18.2" height="37.44" fill="#bcd4f0" stroke="#2563aa" stroke-width="2" rx="2"/><text x="95.70342" y="519.82114" font-size="13" fill="#1a3a5c" text-anchor="middle">1主</text><rect x="67.71728" y="496.10114" width="18.2" height="37.44" fill="#dcebfb" stroke="#2563aa" stroke-width="1.2" rx="2"/><text x="76.81728" y="519.82114" font-size="13" fill="#1a3a5c" text-anchor="middle">2</text><rect x="48.6" y="496" width="18.2" height="37.44" fill="#dcebfb" stroke="#2563aa" stroke-width="1.2" rx="2"/><text x="57.7" y="519.72" font-size="13" fill="#1a3a5c" text-anchor="middle">3</text><rect x="67.71728" y="533.48524" width="18.2" height="37.44" fill="#dcebfb" stroke="#2563aa" stroke-width="1.2" rx="2"/><text x="76.81728" y="557.20524" font-size="13" fill="#1a3a5c" text-anchor="middle">4</text><rect x="49.51728" y="533.48524" width="18.2" height="37.44" fill="#dcebfb" stroke="#2563aa" stroke-width="1.2" rx="2"/><text x="58.61728" y="557.20524" font-size="13" fill="#1a3a5c" text-anchor="middle">5</text><rect x="86.60342" y="533.48524" width="18.2" height="37.44" fill="#fde2e2" stroke="#d62828" stroke-width="2" stroke-dasharray="5 3" rx="2"/><text x="95.70342" y="557.20524" font-size="14" font-weight="bold" fill="#d62828" text-anchor="middle">6</text><rect x="425" y="132" width="949" height="681.1999999999999" fill="#fcfcf8" stroke="#888" stroke-width="1.5"/><text x="425" y="118" font-size="19" font-weight="bold" fill="#222">文牒 tmpText（基本變體）　<tspan font-size="12" font-weight="normal" fill="#666">紙張 36.5cm × 26.2cm（直書，由上往下）</tspan></text><line x1="425" y1="132" x2="425" y2="813.1999999999999" stroke="#eee" stroke-width="1"/><line x1="555" y1="132" x2="555" y2="813.1999999999999" stroke="#eee" stroke-width="1"/><line x1="685" y1="132" x2="685" y2="813.1999999999999" stroke="#eee" stroke-width="1"/><line x1="815" y1="132" x2="815" y2="813.1999999999999" stroke="#eee" stroke-width="1"/><line x1="945" y1="132" x2="945" y2="813.1999999999999" stroke="#eee" stroke-width="1"/><line x1="1075" y1="132" x2="1075" y2="813.1999999999999" stroke="#eee" stroke-width="1"/><line x1="1205" y1="132" x2="1205" y2="813.1999999999999" stroke="#eee" stroke-width="1"/><line x1="1335" y1="132" x2="1335" y2="813.1999999999999" stroke="#eee" stroke-width="1"/><line x1="425" y1="132" x2="1374" y2="132" stroke="#eee" stroke-width="1"/><text x="419" y="136" font-size="9" fill="#bbb" text-anchor="end">0</text><line x1="425" y1="262" x2="1374" y2="262" stroke="#eee" stroke-width="1"/><text x="419" y="266" font-size="9" fill="#bbb" text-anchor="end">5</text><line x1="425" y1="392" x2="1374" y2="392" stroke="#eee" stroke-width="1"/><text x="419" y="396" font-size="9" fill="#bbb" text-anchor="end">10</text><line x1="425" y1="522" x2="1374" y2="522" stroke="#eee" stroke-width="1"/><text x="419" y="526" font-size="9" fill="#bbb" text-anchor="end">15</text><line x1="425" y1="652" x2="1374" y2="652" stroke="#eee" stroke-width="1"/><text x="419" y="656" font-size="9" fill="#bbb" text-anchor="end">20</text><line x1="425" y1="782" x2="1374" y2="782" stroke="#eee" stroke-width="1"/><text x="419" y="786" font-size="9" fill="#bbb" text-anchor="end">25</text><text x="724" y="221.13114000000002" font-size="13" font-weight="bold" fill="#444">往生</text><rect x="747.7252599999999" y="227.13114000000002" width="23.725260000000002" height="53.56" fill="#bcd4f0" stroke="#2563aa" stroke-width="2" rx="2"/><text x="759.5878899999999" y="258.91114000000005" font-size="13" fill="#1a3a5c" text-anchor="middle">1主</text><rect x="771.45052" y="227.13114000000002" width="23.725260000000002" height="53.56" fill="#dcebfb" stroke="#2563aa" stroke-width="1.2" rx="2"/><text x="783.31315" y="258.91114000000005" font-size="13" fill="#1a3a5c" text-anchor="middle">2</text><rect x="724" y="227.13114000000002" width="23.725260000000002" height="53.56" fill="#dcebfb" stroke="#2563aa" stroke-width="1.2" rx="2"/><text x="735.86263" y="258.91114000000005" font-size="13" fill="#1a3a5c" text-anchor="middle">3</text><rect x="771.45052" y="280.78864" width="23.725260000000002" height="53.56" fill="#dcebfb" stroke="#2563aa" stroke-width="1.2" rx="2"/><text x="783.31315" y="312.56863999999996" font-size="13" fill="#1a3a5c" text-anchor="middle">4</text><rect x="724" y="280.78864" width="23.725260000000002" height="53.56" fill="#dcebfb" stroke="#2563aa" stroke-width="1.2" rx="2"/><text x="735.86263" y="312.56863999999996" font-size="13" fill="#1a3a5c" text-anchor="middle">5</text><rect x="747.7252599999999" y="280.78864" width="23.725260000000002" height="53.56" fill="#fde2e2" stroke="#d62828" stroke-width="2" stroke-dasharray="5 3" rx="2"/><text x="759.5878899999999" y="312.56863999999996" font-size="14" font-weight="bold" fill="#d62828" text-anchor="middle">6</text><text x="946.2688" y="523.1448" font-size="13" font-weight="bold" fill="#444">陽上</text><rect x="993.7193199999999" y="529.1448" width="23.725260000000002" height="51.48" fill="#bcd4f0" stroke="#2563aa" stroke-width="2" rx="2"/><text x="1005.5819499999999" y="559.8848" font-size="13" fill="#1a3a5c" text-anchor="middle">1主</text><rect x="969.99406" y="529.1448" width="23.725260000000002" height="51.48" fill="#dcebfb" stroke="#2563aa" stroke-width="1.2" rx="2"/><text x="981.85669" y="559.8848" font-size="13" fill="#1a3a5c" text-anchor="middle">2</text><rect x="946.2688" y="529.1448" width="23.725260000000002" height="51.48" fill="#dcebfb" stroke="#2563aa" stroke-width="1.2" rx="2"/><text x="958.13143" y="559.8848" font-size="13" fill="#1a3a5c" text-anchor="middle">3</text><rect x="969.99406" y="580.7381600000001" width="23.725260000000002" height="51.48" fill="#dcebfb" stroke="#2563aa" stroke-width="1.2" rx="2"/><text x="981.85669" y="611.4781600000001" font-size="13" fill="#1a3a5c" text-anchor="middle">4</text><rect x="946.2688" y="580.7381600000001" width="23.725260000000002" height="51.48" fill="#dcebfb" stroke="#2563aa" stroke-width="1.2" rx="2"/><text x="958.13143" y="611.4781600000001" font-size="13" fill="#1a3a5c" text-anchor="middle">5</text><rect x="993.7193199999999" y="580.7381600000001" width="23.725260000000002" height="51.48" fill="#fde2e2" stroke="#d62828" stroke-width="2" stroke-dasharray="5 3" rx="2"/><text x="1005.5819499999999" y="611.4781600000001" font-size="14" font-weight="bold" fill="#d62828" text-anchor="middle">6</text></svg>